<svg width="50" height="50" viewBox="0 0 50 50" fill="none" xmlns="http://www.w3.org/2000/svg">
<path d="M50 43.0556C50 46.8917 46.8917 50 43.0556 50H6.94444C3.10972 50 0 46.8917 0 43.0556V6.94444C0 3.10833 3.10972 0 6.94444 0H43.0556C46.8917 0 50 3.10833 50 6.94444V43.0556Z" fill="#0078D4"/>
<path opacity="0.05" d="M33.3332 43.0574V29.031C33.3332 26.6852 32.1957 25.2838 30.2888 25.2838C29.1568 25.2838 28.3249 25.9213 27.8179 27.1782C27.7943 27.2671 27.761 27.6296 27.7749 28.7255L27.7777 43.0574H18.0554V16.6685H27.7777V18.1421C29.1971 17.163 30.9374 16.6685 32.9693 16.6685C39.2846 16.6685 43.0541 20.9643 43.0541 28.1602L43.0555 43.0574H33.3332ZM6.94434 43.0574V16.6685H11.7457C8.96378 16.6685 6.94434 14.6241 6.94434 11.806C6.94434 8.99073 8.99711 6.94629 11.8249 6.94629C14.6193 6.94629 16.6096 8.93379 16.6666 11.7782C16.6666 14.6171 14.6124 16.6685 11.7846 16.6685H16.6666V43.0574H6.94434Z" fill="black"/>
<path opacity="0.07" d="M34.0273 42.3629V29.0309C34.0273 26.2906 32.5954 24.5892 30.2884 24.5892C28.4898 24.5892 27.6009 25.8559 27.1732 26.9184C27.0593 27.1948 27.0745 28.292 27.0801 28.7601L27.0829 42.3629H18.7495V17.3629H27.0829V19.6379C28.187 18.4948 29.9648 17.3629 32.969 17.3629C38.8482 17.3629 42.3593 21.399 42.3593 28.1601L42.3607 42.3629H34.0273ZM7.63843 42.3629V17.3629H15.9718V42.3629H7.63843ZM11.7454 15.974C9.36621 15.974 7.63843 14.2212 7.63843 11.8059C7.63843 9.39201 9.39954 7.64062 11.8245 7.64062C14.219 7.64062 15.9232 9.34757 15.9718 11.792C15.9718 14.2212 14.2107 15.974 11.7843 15.974H11.7454Z" fill="black"/>
<path d="M8.33301 18.0543H15.2775V41.6654H8.33301V18.0543ZM11.7844 15.2765H11.7455C9.67329 15.2765 8.33301 13.732 8.33301 11.8029C8.33301 9.83203 9.71495 8.33203 11.8247 8.33203C13.9372 8.33203 15.2386 9.83203 15.2775 11.8029C15.2775 13.7306 13.9372 15.2765 11.7844 15.2765ZM41.6663 41.6654H34.7219V29.0279C34.7219 25.9751 33.0205 23.8918 30.2886 23.8918C28.2038 23.8918 27.0761 25.2973 26.5288 26.6556C26.3288 27.1418 26.3886 28.4862 26.3886 29.1654V41.6654H19.4441V18.0543H26.3886V21.6876C27.3899 20.1376 28.958 18.0543 32.9691 18.0543C37.9386 18.0543 41.6649 21.1793 41.6649 28.157L41.6663 41.6654Z" fill="white"/>
</svg>
