<svg width="285" height="55" viewBox="0 0 285 55" fill="none" xmlns="http://www.w3.org/2000/svg">
<path fill-rule="evenodd" clip-rule="evenodd" d="M163.017 24.8201C163.203 24.4314 163.513 21.959 163.626 21.2792C163.825 20.0881 164.014 18.8358 164.22 17.6038C164.534 15.7268 165.019 11.938 165.389 10.3525C169.572 10.3525 170.188 10.5041 169.403 15.1971C169.07 17.1894 168.539 21.93 167.801 23.2007C167.428 23.8431 166.786 24.481 166.074 24.6751C165.254 24.8983 164.027 24.8201 163.017 24.8201ZM151.988 54.1111H158.392C158.392 53.1074 161.21 36.6771 161.574 34.0498C161.857 32.0083 161.725 31.7188 162.661 31.6979L164.066 47.0146C164.119 47.5224 164.163 48.0299 164.194 48.4276L164.677 54.1107H171.674L168.472 30.2746C169.649 30.1767 171.688 28.3019 172.353 27.514C174.574 24.8793 175.001 20.5969 175.503 17.1459C176.151 12.7035 178.2 4.61392 171.452 3.22155C169.022 2.71985 163.223 2.99968 160.171 2.99968C159.726 4.9092 158.477 13.5252 158.105 15.7564L152.989 47.6409C152.793 48.8642 151.989 53.2822 151.989 54.1111H151.988Z" fill="#F0F0F0"/>
<path fill-rule="evenodd" clip-rule="evenodd" d="M129.693 46.7586C129.693 50.32 130.182 52.8645 133.488 54.348C136.203 55.5662 141.674 55.1482 144.31 52.4807C147.924 48.8243 147.943 45.0049 148.803 39.8969C149.21 37.4795 149.578 35.0142 149.989 32.5447C151.506 23.4283 152.877 14.0729 154.411 4.94783C154.512 4.34438 154.671 3.65721 154.716 3.11816H148.312C148.113 3.97407 147.987 5.07116 147.837 5.96377C146.04 16.6532 144.466 27.4686 142.671 38.1522C142.333 40.1606 142.094 41.9835 141.74 43.9813C141.404 45.8769 140.689 47.5887 138.469 47.5887C135.811 47.5887 136.218 45.0915 136.488 43.4728L142.485 6.06649C142.646 5.09627 142.765 4.02205 142.976 3.11849H136.572C136.137 4.98453 135.159 11.8327 134.81 13.9268L131.32 35.6966C130.939 37.9632 129.694 44.917 129.694 46.7589L129.693 46.7586Z" fill="#F0F0F0"/>
<path fill-rule="evenodd" clip-rule="evenodd" d="M175.112 54.1117H181.516C181.516 53.3167 181.785 52.1384 181.923 51.3163L184.802 33.4432C184.842 33.1714 184.926 32.2875 185.074 32.0547C185.104 32.415 185.235 33.0777 185.276 33.3942L188.038 54.112H194.917C194.873 53.592 194.727 52.9721 194.629 52.3841C194.518 51.7198 194.426 51.1718 194.324 50.5545C194.12 49.3283 193.922 48.1436 193.714 46.8948C193.312 44.4762 192.911 42.0689 192.494 39.5765L190.704 28.6987L203.099 3.00098H196.221C196.11 3.23347 196.073 3.40156 195.945 3.67333C195.83 3.91935 195.726 4.09162 195.63 4.30673L193.748 8.47225C193.089 10.099 191.84 12.4916 191.224 14.0128L187.448 22.3322C187.214 22.8056 187.057 23.1936 186.814 23.7146L186.141 25.058C186.211 24.2234 186.48 23.1459 186.596 22.3106C187.343 16.927 188.498 11.1317 189.245 5.74805C189.361 4.91275 189.63 3.8353 189.699 3.00098H183.296C182.851 4.9105 181.602 13.5265 181.229 15.7577C180.51 20.0562 179.88 24.3306 179.179 28.5309L176.114 47.6419C175.937 48.7483 175.737 49.7382 175.594 50.7979C175.456 51.8245 175.113 53.0913 175.113 54.112L175.112 54.1117Z" fill="#F0F0F0"/>
<path fill-rule="evenodd" clip-rule="evenodd" d="M198.475 54.1114H214.84C214.885 53.5714 215.029 52.9022 215.127 52.264L216.026 46.6401H206.064L208.318 32.291H216.975L217.838 26.7511C217.924 26.2404 218.115 25.3707 218.16 24.8201H209.503C209.689 24.4336 211.048 15.3075 211.265 14.0111C211.463 12.8274 211.616 11.4637 211.875 10.3525H221.837L223.022 3H206.658C206.213 4.90952 204.964 13.5255 204.591 15.7568L199.476 47.6412C199.298 48.7477 199.098 49.7375 198.956 50.7973C198.817 51.8238 198.475 53.0906 198.475 54.1114H198.475Z" fill="#F0F0F0"/>
<path fill-rule="evenodd" clip-rule="evenodd" d="M225.275 54.1114H231.679L235.129 32.5393C235.274 32.1348 235.548 31.5964 235.744 31.1382L237.649 26.6397C238.098 25.6341 238.448 24.7289 238.88 23.7201L243.861 11.9799C244.304 10.9446 244.689 10.035 245.131 8.98037L247.01 4.57463C247.217 4.09226 247.525 3.53615 247.57 3.00032H240.811L235.355 17.5851C235.041 18.3744 234.752 19.1604 234.451 20.0025L233.645 22.1612C233.505 22.4504 233.574 22.3148 233.458 22.4484C233.458 20.8213 233.244 19.2699 233.226 17.5816C233.219 17.0084 233.146 16.9627 233.108 16.5128C233.074 16.0952 233.125 15.6331 233.103 15.2138L232.951 12.7566C232.756 11.3352 232.809 9.4212 232.645 7.96314C232.597 7.5368 232.644 7.10144 232.632 6.6722C232.615 6.08614 232.522 6.08035 232.505 5.49397C232.478 4.54114 232.391 3.84817 232.391 3H225.631C225.631 4.11834 226.761 13.8221 226.946 16.0343L227.968 25.8038C228.117 26.9617 228.146 27.9825 228.307 29.1405C228.46 30.2398 228.543 31.2483 228.648 32.359C228.699 32.898 228.356 34.6868 228.241 35.3749C227.983 36.9064 225.276 53.2374 225.276 54.1114H225.275Z" fill="#F0F0F0"/>
<path fill-rule="evenodd" clip-rule="evenodd" d="M113.565 10.3521H119.376C119.376 11.2154 117.058 24.8738 116.802 26.633C116.524 28.537 116.232 30.282 115.921 32.1554C115.624 33.9391 115.369 35.7162 115.057 37.5765L113.294 48.5026C113.152 49.3656 113.006 50.3629 112.854 51.2645C112.756 51.8448 112.561 53.6165 112.38 53.9922L117.718 53.9945C118.659 54.0074 118.808 54.2151 118.933 53.4303C119.252 51.4165 119.549 49.3817 119.902 47.2838C120.251 45.2036 120.555 43.1447 120.884 41.1505L122.85 28.8867C123.421 24.9662 124.305 20.4932 124.826 16.6313C124.957 15.6547 125.781 11.1214 125.781 10.3525H131.71C131.807 9.19097 132.88 3.72935 132.896 3H114.752C114.66 4.10514 113.585 9.53198 113.566 10.3525L113.565 10.3521Z" fill="#F0F0F0"/>
<path fill-rule="evenodd" clip-rule="evenodd" d="M0 53.9923H99.495L107.713 2.52539H8.21802L0 53.9923ZM17.6503 48.274L24.7194 48.3133C25.4952 44.2566 26.5169 40.1906 27.3986 36.1494C28.8424 29.5327 28.1347 31.629 31.6687 25.5907L42.5916 6.83936L35.1571 6.82068C34.7768 7.43218 34.504 8.09584 34.1537 8.74953C33.7943 9.42092 33.4253 10.0694 33.093 10.7669C32.4866 12.0389 31.6813 13.5533 30.9944 14.8407C30.2625 16.2124 29.6333 17.4731 28.9213 18.8127L26.7523 22.8565L25.5557 6.82487L18.1024 6.82101C18.1108 8.02854 20.8376 26.3435 21.083 28.1178C21.1847 28.8539 21.4324 30.0428 21.4542 30.7489C21.4749 31.4139 17.9038 46.9889 17.6507 48.2734L17.6503 48.274ZM85.5655 6.88992C85.0918 7.22448 85.0255 8.61621 84.8935 9.20131L81.1778 26.0012C80.4587 29.2075 79.7529 32.405 79.0509 35.6155C78.2098 39.4612 78.2433 42.7606 74.8963 43.0909C72.773 43.3006 71.446 42.5329 71.8872 40.3249C72.2076 38.7219 72.5875 37.1663 72.9401 35.5594L77.1691 16.4301C77.8469 13.3562 78.7766 9.93935 79.2618 6.89185L72.4024 6.89024C72.0668 7.07958 72.1702 7.03418 72.0617 7.51719L65.4131 37.628C64.982 39.5598 64.2658 41.9774 64.5701 44.0434C65.2724 48.8156 70.592 49.317 74.5412 49.0159C79.3639 48.6492 82.3805 46.6266 83.997 43.4097C84.898 41.6168 85.2055 39.7391 85.6788 37.6277L89.7619 19.1759C90.4105 16.2392 92.0753 9.34589 92.4662 6.88959H85.5658L85.5655 6.88992ZM65.0799 13.4354C65.8166 7.42316 60.6902 5.87784 55.1938 6.29355C50.2352 6.66902 46.5408 8.74244 44.9838 13.4109C44.3228 15.3932 40.9658 31.2075 40.2136 34.6057C39.7219 36.8278 38.9648 39.5305 38.6992 41.7588C37.9647 47.9208 42.998 49.4526 48.6886 49.0153C54.0478 48.6038 57.3732 46.1278 58.8036 41.8184C59.341 40.199 64.8606 15.2226 65.0795 13.4354H65.0799Z" fill="#F0F0F0"/>
<path fill-rule="evenodd" clip-rule="evenodd" d="M54.1233 12.3159C52.5738 12.6972 51.9501 13.5206 51.5778 15.1496L46.7554 37.0054C46.5409 37.9878 45.8293 40.6283 45.9478 41.5374C46.149 43.0824 48.0718 43.3619 49.6622 42.9835C51.1833 42.6216 51.8119 41.7251 52.1745 40.1801L55.0774 27.0566C55.4104 25.5347 57.9452 14.8405 57.8232 13.7952C57.638 12.2045 55.7028 11.9272 54.1233 12.3159Z" fill="#F0F0F0"/>
<path fill-rule="evenodd" clip-rule="evenodd" d="M260.194 10.998C260.032 7.47203 256.55 7.42083 253.884 7.4862C253.764 7.4891 253.66 7.4482 253.574 7.36448C253.489 7.28076 253.445 7.17772 253.445 7.05793L253.446 1.43273C253.446 1.26014 253.541 1.11265 253.698 1.04181C256.616 -0.269735 260.068 -0.352814 263.036 0.848606C265.887 2.00269 268.105 4.28671 268.634 7.3809C268.638 7.40602 268.64 7.42792 268.64 7.45336L268.638 28.2159C268.638 28.452 268.446 28.6445 268.21 28.6445L260.626 28.6436C260.39 28.6436 260.198 28.451 260.198 28.215L260.194 10.9977V10.998ZM275.8 10.998C275.638 7.47203 272.155 7.42083 269.489 7.4862C269.37 7.4891 269.265 7.4482 269.18 7.36448C269.094 7.28076 269.051 7.17772 269.051 7.05793L269.051 1.43273C269.051 1.26014 269.147 1.11265 269.304 1.04181C272.222 -0.269735 275.673 -0.352814 278.642 0.848606C281.493 2.00269 283.709 4.28671 284.239 7.3809C284.244 7.40602 284.246 7.42792 284.246 7.45336L284.244 28.2159C284.244 28.452 284.051 28.6445 283.815 28.6445L276.231 28.6436C275.995 28.6436 275.803 28.451 275.803 28.215L275.8 10.9977V10.998Z" fill="#2B2A2A"/>
<path fill-rule="evenodd" clip-rule="evenodd" d="M253.873 1.43263L253.873 7.05782C256.047 7.00469 260.439 6.84433 260.622 10.9883L260.625 28.2152L268.209 28.2161L268.211 7.45357C267.204 1.57656 259.766 -1.21623 253.873 1.43295L253.873 1.43263Z" fill="#2D9CDB"/>
<path fill-rule="evenodd" clip-rule="evenodd" d="M269.479 1.43263L269.479 7.05782C271.652 7.00469 276.044 6.84433 276.228 10.9883L276.231 28.2152L283.814 28.2161L283.816 7.45357C282.81 1.57656 275.372 -1.21623 269.479 1.43295L269.479 1.43263Z" fill="#2D9CDB"/>
</svg>
