<svg width="50" height="50" viewBox="0 0 50 50" fill="none" xmlns="http://www.w3.org/2000/svg">
<rect width="50" height="50" rx="6" fill="#40C351"/>
<path d="M7.90698 42.0976L10.3862 33.0465C8.85672 30.3979 8.05239 27.3922 8.05331 24.3139C8.05791 14.683 15.8951 6.84766 25.5269 6.84766C30.201 6.8495 34.5871 8.66891 37.8864 11.97C41.1847 15.272 43.0014 19.66 42.9995 24.3277C42.9958 33.9585 35.1568 41.7948 25.5269 41.7948H25.5195C22.5958 41.7939 19.7217 41.0604 17.1697 39.668L7.90698 42.0976Z" fill="white"/>
<path d="M7.90652 42.553C7.78504 42.553 7.66724 42.5052 7.57982 42.4168C7.46478 42.2999 7.41969 42.1297 7.46294 41.9723L9.89159 33.1044C8.38599 30.43 7.59178 27.3931 7.59362 24.3101C7.5973 14.4243 15.6416 6.38281 25.5264 6.38281C30.3211 6.38465 34.826 8.25192 38.2117 11.6404C41.5975 15.0299 43.4611 19.5338 43.4592 24.323C43.4555 34.2078 35.4103 42.2502 25.5264 42.2502C22.5916 42.2493 19.6881 41.5251 17.1113 40.1547L8.0234 42.5374C7.98475 42.5484 7.94609 42.553 7.90652 42.553Z" fill="white"/>
<path d="M35.7983 14.0512C33.0558 11.3069 29.4105 9.79487 25.5306 9.79395C17.5204 9.79395 11.0056 16.3059 11.002 24.3106C11.001 27.054 11.7686 29.7247 13.2226 32.0374L13.5686 32.5868L12.1008 37.9438L17.5977 36.5026L18.1287 36.8174C20.3576 38.1408 22.9142 38.8402 25.5205 38.8411H25.526C33.5307 38.8411 40.0454 32.3282 40.0482 24.3226C40.0491 20.4436 38.5408 16.7955 35.7983 14.0512Z" fill="#40C351"/>
<path fill-rule="evenodd" clip-rule="evenodd" d="M21.1594 17.0089C20.8327 16.2819 20.4885 16.2672 20.1765 16.2543C19.9216 16.2432 19.6308 16.2442 19.34 16.2442C19.0492 16.2442 18.5761 16.3537 18.1758 16.7908C17.7755 17.228 16.6472 18.2835 16.6472 20.4315C16.6472 22.5794 18.2117 24.6556 18.4298 24.9464C18.6479 25.2372 21.4502 29.7862 25.8879 31.5366C29.5755 32.9907 30.3264 32.7017 31.1271 32.629C31.9277 32.5563 33.7103 31.5734 34.0738 30.5538C34.4374 29.5341 34.4374 28.6607 34.3288 28.4785C34.2193 28.2963 33.9284 28.1877 33.4922 27.9687C33.056 27.7496 30.909 26.6941 30.5086 26.5487C30.1083 26.4032 29.8175 26.3305 29.5258 26.7677C29.235 27.2039 28.3984 28.1877 28.1435 28.4785C27.8886 28.7702 27.6337 28.807 27.1974 28.588C26.7612 28.369 25.355 27.9088 23.6865 26.4217C22.3889 25.2649 21.5128 23.8356 21.2579 23.3985C21.003 22.9623 21.2303 22.7258 21.4493 22.5077C21.6453 22.3116 21.8855 21.9978 22.1045 21.7429C22.3227 21.488 22.3954 21.3058 22.5408 21.0149C22.6862 20.7232 22.6135 20.4683 22.5039 20.2502C22.3963 20.0312 21.5478 17.8722 21.1594 17.0089Z" fill="white"/>
</svg>
